<svg width="64" height="64" viewBox="0 0 64 64" fill="none" xmlns="http://www.w3.org/2000/svg">
<path d="M0 3.2C0 1.43269 1.43269 0 3.2 0H60.8C62.5673 0 64 1.43269 64 3.2V60.8C64 62.5673 62.5673 64 60.8 64H3.2C1.43269 64 0 62.5673 0 60.8V3.2Z" fill="#6AD4C5"/>
<path d="M39.9688 36.0312V32H33.9688V26H30.0312V32H24.0312V36.0312H30.0312V42.0312H33.9688V36.0312H39.9688ZM50 18.0312V21.9688L45.9688 33.9688L50 45.9688V50H14V45.9688L18.0312 33.9688L14 21.9688V18.0312H39.4062L42.3125 9.96875L47 11.75L44.75 18.0312H50Z" fill="white"/>
</svg>
